<svg width="138" height="38" viewBox="0 0 138 38" fill="none" xmlns="http://www.w3.org/2000/svg">
<g clip-path="url(#clip0_16_57)">
<path d="M108.977 11.1114L114.029 7.38321H97.1159V29.7156H114.029V25.9874H101.948V20.2856H112.272V16.5574H101.948V11.1114H108.977Z" fill="#21A038"/>
<path d="M84.3393 16.0822H78.4818V11.1114H87.8537L92.9058 7.38321H73.6494V29.7156H83.7169C89.3547 29.7156 92.6129 27.1571 92.6129 22.6979C92.6129 18.4215 89.6842 16.0822 84.3393 16.0822ZM83.5339 25.9874H78.4818V19.8104H83.5339C86.609 19.8104 88.0368 20.8338 88.0368 22.9172C88.0368 25.0006 86.4992 25.9874 83.5339 25.9874Z" fill="#21A038"/>
<path d="M127.721 7.38321H118.532V29.7156H123.365V23.3923H127.758C133.615 23.3923 137.276 20.3221 137.276 15.3878C137.276 10.4535 133.615 7.38321 127.721 7.38321ZM127.611 19.6642H123.328V11.1114H127.611C130.723 11.1114 132.407 12.6465 132.407 15.3878C132.407 18.1291 130.723 19.6642 127.611 19.6642Z" fill="#21A038"/>
<path d="M65.3757 24.8909C64.0944 25.5854 62.6666 25.9509 61.2022 25.9509C56.8457 25.9509 53.6973 22.8441 53.6973 18.5677C53.6973 14.2913 56.8457 11.1845 61.2022 11.1845C62.7764 11.1479 64.314 11.6596 65.5953 12.5734L69.0732 10.0148L68.8536 9.79555C66.8401 8.00457 64.131 7.09081 61.0558 7.09081C57.7244 7.09081 54.6858 8.22387 52.4892 10.2707C50.2927 12.3906 49.048 15.3512 49.1212 18.4215C49.0846 21.5283 50.2927 24.5254 52.4892 26.7184C54.7956 28.8749 57.8708 30.0811 61.0192 30.008C64.4971 30.008 67.5356 28.8018 69.5857 26.6088L66.474 24.3061L65.3757 24.8909Z" fill="#21A038"/>
<path d="M34.0016 7.23701C34.8802 8.37008 35.6124 9.6128 36.2348 10.9286L19.3213 23.3924L12.2191 18.9332V13.5968L19.2847 18.0194L34.0016 7.23701Z" fill="#21A038"/>
<path d="M5.00711 18.5677C5.00711 18.3118 5.00711 18.0925 5.04372 17.8367L0.76044 17.6174C0.76044 17.9098 0.723831 18.2387 0.723831 18.5311C0.723831 23.6482 2.81056 28.2901 6.1786 31.6528L9.21717 28.6191C6.61791 26.0605 5.00711 22.5151 5.00711 18.5677Z" fill="url(#paint0_linear_16_57)"/>
<path d="M19.2847 4.31296C19.541 4.31296 19.7606 4.31296 20.0169 4.34951L20.2365 0.0730953C19.9437 0.0730953 19.6142 0.0365448 19.3213 0.0365448C14.196 0.0365448 9.54665 2.11993 6.1786 5.48258L9.21717 8.51627C11.7798 5.92118 15.3675 4.31296 19.2847 4.31296Z" fill="url(#paint1_linear_16_57)"/>
<path d="M19.2847 32.8224C19.0284 32.8224 18.8088 32.8224 18.5525 32.7858L18.3329 37.0622C18.6257 37.0622 18.9552 37.0988 19.2481 37.0988C24.3734 37.0988 29.0227 35.0154 32.3908 31.6528L29.3522 28.6191C26.7896 31.2507 23.2385 32.8224 19.2847 32.8224Z" fill="url(#paint2_linear_16_57)"/>
<path d="M27.3387 6.7984L30.963 4.13021C27.778 1.57167 23.7144 0 19.2847 0V4.27641C22.2867 4.31296 25.069 5.22673 27.3387 6.7984Z" fill="url(#paint3_linear_16_57)"/>
<path d="M37.8822 18.5677C37.8822 17.4346 37.7723 16.3381 37.5893 15.2416L33.5989 18.2022C33.5989 18.3118 33.5989 18.458 33.5989 18.5677C33.5989 22.771 31.7684 26.5357 28.8763 29.1308L31.7684 32.3107C35.5026 28.948 37.8822 24.0137 37.8822 18.5677Z" fill="#21A038"/>
<path d="M19.2847 32.8224C15.0746 32.8224 11.3039 30.9949 8.70464 28.1074L5.51964 30.9949C8.92429 34.7596 13.8299 37.0988 19.2847 37.0988V32.8224Z" fill="url(#paint4_linear_16_57)"/>
<path d="M9.7297 8.00457L6.83757 4.82468C3.06682 8.22388 0.723831 13.1216 0.723831 18.5677H5.00711C5.00711 14.4009 6.83757 10.5997 9.7297 8.00457Z" fill="url(#paint5_linear_16_57)"/>
</g>
<defs>
<linearGradient id="paint0_linear_16_57" x1="501.894" y1="1369.13" x2="64.7413" y2="107.527" gradientUnits="userSpaceOnUse">
<stop offset="0.1444" stop-color="#F2E913"/>
<stop offset="0.3037" stop-color="#E7E518"/>
<stop offset="0.5823" stop-color="#CADB26"/>
<stop offset="0.891" stop-color="#A3CD39"/>
</linearGradient>
<linearGradient id="paint1_linear_16_57" x1="128.274" y1="495.059" x2="1239.1" y2="72.4228" gradientUnits="userSpaceOnUse">
<stop offset="0.0592" stop-color="#0FA8E0"/>
<stop offset="0.5385" stop-color="#0099F9"/>
<stop offset="0.9234" stop-color="#0291EB"/>
</linearGradient>
<linearGradient id="paint2_linear_16_57" x1="-6.81767" y1="511.803" x2="1317.11" y2="213.058" gradientUnits="userSpaceOnUse">
<stop offset="0.1226" stop-color="#A3CD39"/>
<stop offset="0.2846" stop-color="#86C339"/>
<stop offset="0.8693" stop-color="#21A038"/>
</linearGradient>
<linearGradient id="paint3_linear_16_57" x1="-68.7202" y1="273.613" x2="1032.29" y2="612.78" gradientUnits="userSpaceOnUse">
<stop offset="0.0566" stop-color="#0291EB"/>
<stop offset="0.79" stop-color="#0C8ACB"/>
</linearGradient>
<linearGradient id="paint4_linear_16_57" x1="114.428" y1="386.317" x2="1296.7" y2="827.343" gradientUnits="userSpaceOnUse">
<stop offset="0.1324" stop-color="#F2E913"/>
<stop offset="0.2977" stop-color="#EBE716"/>
<stop offset="0.5306" stop-color="#D9E01F"/>
<stop offset="0.8023" stop-color="#BBD62D"/>
<stop offset="0.9829" stop-color="#A3CD39"/>
</linearGradient>
<linearGradient id="paint5_linear_16_57" x1="326.641" y1="1430.78" x2="799.359" y2="203.036" gradientUnits="userSpaceOnUse">
<stop offset="0.0698" stop-color="#A3CD39"/>
<stop offset="0.2599" stop-color="#81C55F"/>
<stop offset="0.9216" stop-color="#0FA8E0"/>
</linearGradient>
<clipPath id="clip0_16_57">
<rect width="136.552" height="37.0988" fill="white" transform="translate(0.723831)"/>
</clipPath>
</defs>
</svg>
