<svg width="38" height="38" viewBox="0 0 38 38" fill="none" xmlns="http://www.w3.org/2000/svg">
<path d="M33.2777 7.237C34.1563 8.37007 34.8885 9.61278 35.5109 10.9286L18.5974 23.3923L11.4952 18.9332V13.5968L18.5608 18.0194L33.2777 7.237Z" fill="#21A038"/>
<path d="M4.28328 18.5677C4.28328 18.3118 4.28328 18.0925 4.31989 17.8367L0.0366092 17.6174C0.0366092 17.9098 0 18.2387 0 18.5311C0 23.6482 2.08672 28.2901 5.45477 31.6528L8.49334 28.6191C5.89408 26.0605 4.28328 22.5151 4.28328 18.5677Z" fill="url(#paint0_linear_18_4155)"/>
<path d="M18.5608 4.31297C18.8171 4.31297 19.0367 4.31297 19.293 4.34952L19.5126 0.0731106C19.2198 0.0731106 18.8903 0.0365601 18.5974 0.0365601C13.4721 0.0365601 8.82276 2.11994 5.45471 5.48259L8.49328 8.51629C11.0559 5.9212 14.6436 4.31297 18.5608 4.31297Z" fill="url(#paint1_linear_18_4155)"/>
<path d="M18.5608 32.8224C18.3046 32.8224 18.0849 32.8224 17.8287 32.7858L17.609 37.0623C17.9019 37.0623 18.2314 37.0988 18.5242 37.0988C23.6495 37.0988 28.2989 35.0154 31.6669 31.6528L28.6284 28.6191C26.0657 31.2507 22.5146 32.8224 18.5608 32.8224Z" fill="url(#paint2_linear_18_4155)"/>
<path d="M26.6149 6.7984L30.2392 4.13021C27.0542 1.57167 22.9906 0 18.5609 0V4.27641C21.5629 4.31296 24.3452 5.22673 26.6149 6.7984Z" fill="url(#paint3_linear_18_4155)"/>
<path d="M37.1583 18.5677C37.1583 17.4346 37.0485 16.3381 36.8655 15.2416L32.8751 18.2022C32.8751 18.3118 32.8751 18.458 32.8751 18.5677C32.8751 22.771 31.0446 26.5357 28.1525 29.1308L31.0446 32.3107C34.7787 28.948 37.1583 24.0137 37.1583 18.5677Z" fill="#21A038"/>
<path d="M18.5608 32.8224C14.3508 32.8224 10.58 30.9949 7.98078 28.1074L4.79578 30.9949C8.20043 34.7596 13.1061 37.0988 18.5608 37.0988V32.8224Z" fill="url(#paint4_linear_18_4155)"/>
<path d="M9.00586 8.00454L6.11374 4.82465C2.34299 8.22385 0 13.1216 0 18.5676H4.28328C4.28328 14.4009 6.11374 10.5996 9.00586 8.00454Z" fill="url(#paint5_linear_18_4155)"/>
<defs>
<linearGradient id="paint0_linear_18_4155" x1="501.17" y1="1369.13" x2="64.0175" y2="107.527" gradientUnits="userSpaceOnUse">
<stop offset="0.1444" stop-color="#F2E913"/>
<stop offset="0.3037" stop-color="#E7E518"/>
<stop offset="0.5823" stop-color="#CADB26"/>
<stop offset="0.891" stop-color="#A3CD39"/>
</linearGradient>
<linearGradient id="paint1_linear_18_4155" x1="127.55" y1="495.059" x2="1238.37" y2="72.4228" gradientUnits="userSpaceOnUse">
<stop offset="0.0592" stop-color="#0FA8E0"/>
<stop offset="0.5385" stop-color="#0099F9"/>
<stop offset="0.9234" stop-color="#0291EB"/>
</linearGradient>
<linearGradient id="paint2_linear_18_4155" x1="-7.54152" y1="511.803" x2="1316.39" y2="213.058" gradientUnits="userSpaceOnUse">
<stop offset="0.1226" stop-color="#A3CD39"/>
<stop offset="0.2846" stop-color="#86C339"/>
<stop offset="0.8693" stop-color="#21A038"/>
</linearGradient>
<linearGradient id="paint3_linear_18_4155" x1="-69.444" y1="273.613" x2="1031.57" y2="612.78" gradientUnits="userSpaceOnUse">
<stop offset="0.0566" stop-color="#0291EB"/>
<stop offset="0.79" stop-color="#0C8ACB"/>
</linearGradient>
<linearGradient id="paint4_linear_18_4155" x1="113.705" y1="386.317" x2="1295.98" y2="827.343" gradientUnits="userSpaceOnUse">
<stop offset="0.1324" stop-color="#F2E913"/>
<stop offset="0.2977" stop-color="#EBE716"/>
<stop offset="0.5306" stop-color="#D9E01F"/>
<stop offset="0.8023" stop-color="#BBD62D"/>
<stop offset="0.9829" stop-color="#A3CD39"/>
</linearGradient>
<linearGradient id="paint5_linear_18_4155" x1="325.917" y1="1430.78" x2="798.635" y2="203.036" gradientUnits="userSpaceOnUse">
<stop offset="0.0698" stop-color="#A3CD39"/>
<stop offset="0.2599" stop-color="#81C55F"/>
<stop offset="0.9216" stop-color="#0FA8E0"/>
</linearGradient>
</defs>
</svg>
