<svg width="244" height="40" viewBox="0 0 244 40" fill="none" xmlns="http://www.w3.org/2000/svg">
<g clip-path="url(#clip0_16_57)">
<path d="M109.187 11.4403L114.239 7.71216H97.3254V30.0445H114.239V26.3164H102.158V20.6145H112.482V16.8863H102.158V11.4403H109.187Z" fill="#21A038"/>
<path d="M84.5488 16.4112H78.6913V11.4403H88.0633L93.1153 7.71216H73.8589V30.0445H83.9264C89.5642 30.0445 92.8225 27.486 92.8225 23.0268C92.8225 18.7504 89.8937 16.4112 84.5488 16.4112ZM83.7434 26.3164H78.6913V20.1393H83.7434C86.8186 20.1393 88.2463 21.1628 88.2463 23.2461C88.2463 25.3295 86.7087 26.3164 83.7434 26.3164Z" fill="#21A038"/>
<path d="M127.931 7.71216H118.742V30.0445H123.574V23.7213H127.967C133.825 23.7213 137.486 20.6511 137.486 15.7167C137.486 10.7824 133.825 7.71216 127.931 7.71216ZM127.821 19.9931H123.538V11.4403H127.821C130.933 11.4403 132.617 12.9754 132.617 15.7167C132.617 18.458 130.933 19.9931 127.821 19.9931Z" fill="#21A038"/>
<path d="M65.5852 25.2199C64.3039 25.9143 62.8761 26.2798 61.4118 26.2798C57.0553 26.2798 53.9069 23.173 53.9069 18.8966C53.9069 14.6202 57.0553 11.5134 61.4118 11.5134C62.986 11.4769 64.5235 11.9886 65.8049 12.9023L69.2827 10.3438L69.0631 10.1245C67.0496 8.33352 64.3405 7.41975 61.2653 7.41975C57.9339 7.41975 54.8953 8.55282 52.6988 10.5997C50.5022 12.7196 49.2575 15.6802 49.3307 18.7504C49.2941 21.8572 50.5022 24.8544 52.6988 27.0474C55.0052 29.2039 58.0803 30.41 61.2287 30.3369C64.7066 30.3369 67.7452 29.1308 69.7953 26.9377L66.6835 24.6351L65.5852 25.2199Z" fill="#21A038"/>
<path d="M195.585 7.74871V30.0811H200.417V20.9435H210.704V30.0811H215.537V7.74871H210.704V16.9229H200.417V7.74871H195.585ZM187.274 30.0811H192.363L182.918 7.74871H178.012L168.384 30.0811H173.253L175.193 25.5854H185.444L187.274 30.0811ZM176.658 21.8572L180.392 12.9023L183.906 21.8572H176.658ZM226.373 21.0531H229.375L236.77 30.0445H242.993L233.109 18.4946L241.749 7.71216H236.221L229.045 17.2884H226.373V7.71216H221.54V30.0445H226.373V21.0531ZM152.422 16.4477V11.4769H165.052V7.74871H147.59V30.0811H157.657C163.295 30.0811 166.553 27.5226 166.553 23.0634C166.553 18.787 163.625 16.4477 158.28 16.4477H152.422ZM152.422 26.3529V20.1759H157.474C160.549 20.1759 161.977 21.1993 161.977 23.2827C161.977 25.3661 160.476 26.3895 157.474 26.3895H152.422V26.3529Z" fill="#21A038"/>
<path d="M34.2111 7.56596C35.0897 8.69903 35.8219 9.94175 36.4443 11.2576L19.5308 23.7213L12.4286 19.2621V13.9258L19.4942 18.3484L34.2111 7.56596Z" fill="#21A038"/>
<path d="M5.21663 18.8966C5.21663 18.6408 5.21663 18.4215 5.25324 18.1656L0.969966 17.9463C0.969966 18.2387 0.933357 18.5677 0.933357 18.8601C0.933357 23.9771 3.02008 28.6191 6.38813 31.9817L9.42669 28.948C6.82744 26.3895 5.21663 22.8441 5.21663 18.8966Z" fill="url(#paint0_linear_16_57)"/>
<path d="M19.4942 4.64191C19.7505 4.64191 19.9701 4.64191 20.2264 4.67846L20.4461 0.402044C20.1532 0.402044 19.8237 0.365494 19.5308 0.365494C14.4055 0.365494 9.75618 2.44887 6.38813 5.81152L9.42669 8.84522C11.9893 6.25013 15.577 4.64191 19.4942 4.64191Z" fill="url(#paint1_linear_16_57)"/>
<path d="M19.4942 33.1513C19.238 33.1513 19.0183 33.1513 18.762 33.1148L18.5424 37.3912C18.8353 37.3912 19.1647 37.4277 19.4576 37.4277C24.5829 37.4277 29.2323 35.3444 32.6003 31.9817L29.5618 28.948C26.9991 31.5797 23.448 33.1513 19.4942 33.1513Z" fill="url(#paint2_linear_16_57)"/>
<path d="M27.5482 7.12735L31.1726 4.45916C27.9876 1.90062 23.9239 0.328949 19.4942 0.328949V4.60536C22.4962 4.64191 25.2785 5.55568 27.5482 7.12735Z" fill="url(#paint3_linear_16_57)"/>
<path d="M38.0917 18.8966C38.0917 17.7636 37.9819 16.667 37.7988 15.5705L33.8084 18.5311C33.8084 18.6408 33.8084 18.787 33.8084 18.8966C33.8084 23.0999 31.978 26.8646 29.0858 29.4597L31.978 32.6396C35.7121 29.277 38.0917 24.3427 38.0917 18.8966Z" fill="#21A038"/>
<path d="M19.4942 33.1513C15.2842 33.1513 11.5134 31.3238 8.91417 28.4363L5.72916 31.3238C9.13382 35.0885 14.0395 37.4277 19.4942 37.4277V33.1513Z" fill="url(#paint4_linear_16_57)"/>
<path d="M9.93922 8.33352L7.04709 5.15363C3.27635 8.55283 0.933357 13.4506 0.933357 18.8966H5.21663C5.21663 14.7299 7.04709 10.9286 9.93922 8.33352Z" fill="url(#paint5_linear_16_57)"/>
</g>
<defs>
<linearGradient id="paint0_linear_16_57" x1="502.104" y1="1369.46" x2="64.9509" y2="107.856" gradientUnits="userSpaceOnUse">
<stop offset="0.1444" stop-color="#F2E913"/>
<stop offset="0.3037" stop-color="#E7E518"/>
<stop offset="0.5823" stop-color="#CADB26"/>
<stop offset="0.891" stop-color="#A3CD39"/>
</linearGradient>
<linearGradient id="paint1_linear_16_57" x1="128.483" y1="495.388" x2="1239.31" y2="72.7518" gradientUnits="userSpaceOnUse">
<stop offset="0.0592" stop-color="#0FA8E0"/>
<stop offset="0.5385" stop-color="#0099F9"/>
<stop offset="0.9234" stop-color="#0291EB"/>
</linearGradient>
<linearGradient id="paint2_linear_16_57" x1="-6.60814" y1="512.132" x2="1317.32" y2="213.387" gradientUnits="userSpaceOnUse">
<stop offset="0.1226" stop-color="#A3CD39"/>
<stop offset="0.2846" stop-color="#86C339"/>
<stop offset="0.8693" stop-color="#21A038"/>
</linearGradient>
<linearGradient id="paint3_linear_16_57" x1="-68.5106" y1="273.942" x2="1032.5" y2="613.109" gradientUnits="userSpaceOnUse">
<stop offset="0.0566" stop-color="#0291EB"/>
<stop offset="0.79" stop-color="#0C8ACB"/>
</linearGradient>
<linearGradient id="paint4_linear_16_57" x1="114.638" y1="386.646" x2="1296.91" y2="827.672" gradientUnits="userSpaceOnUse">
<stop offset="0.1324" stop-color="#F2E913"/>
<stop offset="0.2977" stop-color="#EBE716"/>
<stop offset="0.5306" stop-color="#D9E01F"/>
<stop offset="0.8023" stop-color="#BBD62D"/>
<stop offset="0.9829" stop-color="#A3CD39"/>
</linearGradient>
<linearGradient id="paint5_linear_16_57" x1="326.851" y1="1431.11" x2="799.568" y2="203.365" gradientUnits="userSpaceOnUse">
<stop offset="0.0698" stop-color="#A3CD39"/>
<stop offset="0.2599" stop-color="#81C55F"/>
<stop offset="0.9216" stop-color="#0FA8E0"/>
</linearGradient>
<clipPath id="clip0_16_57">
<rect width="242.353" height="40" fill="white" transform="translate(0.823532)"/>
</clipPath>
</defs>
</svg>
