<?xml version="1.0" standalone="no"?>
<!DOCTYPE svg PUBLIC "-//W3C//DTD SVG 20010904//EN"
 "http://www.w3.org/TR/2001/REC-SVG-20010904/DTD/svg10.dtd">
<svg version="1.0" xmlns="http://www.w3.org/2000/svg"
 width="1232.000000pt" height="1232.000000pt" viewBox="0 0 1232.000000 1232.000000"
 preserveAspectRatio="xMidYMid meet">
<metadata>
Created by potrace 1.14, written by Peter Selinger 2001-2017
</metadata>
<g transform="translate(0.000000,1232.000000) scale(0.100000,-0.100000)"
fill="#000000" stroke="none">
<path d="M6169 12310 c-8 -4 -104 -11 -214 -14 -110 -4 -216 -9 -235 -11 -19
-2 -71 -6 -115 -10 -44 -3 -91 -8 -105 -10 -23 -3 -77 -10 -158 -20 -104 -13
-372 -60 -432 -75 -19 -5 -51 -12 -70 -15 -184 -31 -791 -218 -945 -290 -16
-8 -82 -36 -145 -62 -156 -64 -495 -234 -665 -334 -275 -160 -709 -465 -861
-604 -7 -5 -36 -30 -65 -55 -29 -25 -60 -52 -68 -60 -9 -9 -37 -31 -63 -50
-55 -41 -360 -346 -469 -470 -62 -70 -150 -175 -246 -294 -8 -10 -49 -64 -90
-120 -41 -55 -80 -108 -86 -116 -31 -39 -192 -288 -259 -400 -256 -427 -462
-895 -606 -1375 -70 -233 -91 -321 -148 -600 -13 -63 -26 -142 -40 -235 -25
-165 -24 -161 -40 -320 -3 -36 -8 -72 -9 -80 -24 -131 -24 -803 0 -1045 2 -22
7 -71 10 -110 4 -38 8 -81 10 -95 2 -14 7 -47 10 -75 12 -99 16 -120 20 -135
2 -8 6 -37 10 -64 3 -28 12 -79 20 -115 7 -36 16 -84 19 -106 4 -22 9 -48 12
-57 3 -9 6 -25 8 -35 3 -10 12 -49 21 -88 9 -38 18 -77 20 -85 34 -157 179
-614 240 -755 7 -16 34 -82 60 -145 79 -191 263 -559 355 -710 5 -8 39 -64 76
-125 145 -240 329 -494 538 -745 39 -47 76 -89 82 -95 7 -5 29 -32 49 -60 96
-129 447 -465 695 -667 210 -170 551 -409 730 -511 290 -165 493 -268 700
-356 69 -30 139 -59 155 -66 36 -16 196 -76 210 -79 6 -2 21 -8 35 -13 27 -11
240 -78 355 -112 84 -24 329 -85 405 -100 30 -6 66 -14 80 -17 121 -26 449
-73 618 -88 34 -3 88 -8 120 -11 156 -15 622 -22 752 -11 30 3 98 7 150 11 84
5 162 13 313 30 38 4 66 8 147 20 146 22 450 82 585 117 44 11 87 22 95 24
192 46 644 205 875 308 132 59 453 221 577 292 346 197 713 459 1007 719 25
22 52 46 59 53 7 6 19 12 26 12 7 0 28 14 47 32 140 129 313 305 434 442 39
43 75 84 80 90 87 93 317 401 440 586 280 424 462 781 651 1278 118 309 242
778 298 1127 13 77 15 93 21 144 4 30 8 61 10 70 5 26 14 102 20 171 3 36 8
83 10 105 23 234 24 852 0 996 -2 13 -6 63 -10 111 -3 48 -8 98 -10 110 -2 13
-6 46 -9 73 -8 61 -18 134 -22 157 -1 9 -6 38 -10 65 -10 70 -13 85 -18 90 -4
4 -374 -265 -422 -305 -6 -5 -35 -27 -65 -48 -30 -21 -56 -41 -59 -44 -3 -3
-21 -17 -40 -30 -19 -14 -42 -30 -50 -37 -8 -7 -56 -43 -107 -80 -488 -362
-573 -428 -573 -447 -9 -398 -14 -488 -36 -657 -2 -20 -7 -59 -10 -85 -2 -27
-6 -56 -9 -64 -2 -8 -7 -35 -10 -60 -6 -39 -59 -307 -70 -350 -55 -216 -164
-551 -219 -675 -8 -16 -28 -64 -46 -105 -157 -363 -400 -761 -665 -1084 -44
-54 -93 -113 -110 -131 -175 -189 -210 -225 -220 -225 -6 0 -45 -33 -86 -73
-455 -439 -923 -747 -1487 -978 -306 -125 -718 -240 -1017 -283 -23 -4 -50 -8
-60 -10 -11 -2 -49 -7 -85 -11 -36 -4 -76 -9 -90 -11 -14 -2 -63 -6 -110 -10
-47 -3 -101 -8 -120 -10 -87 -10 -577 -3 -712 10 -596 58 -1131 208 -1643 461
-258 128 -325 166 -525 298 -385 255 -656 497 -1025 917 -138 158 -372 490
-492 700 -184 320 -366 750 -443 1045 -4 17 -17 64 -28 105 -11 41 -23 86 -26
100 -2 14 -14 68 -25 120 -11 53 -23 113 -27 134 -3 21 -8 48 -10 60 -2 11 -7
39 -9 61 -3 22 -7 51 -10 65 -2 14 -7 50 -10 80 -4 30 -8 69 -10 85 -20 174
-26 575 -12 808 12 193 53 478 97 672 11 50 22 99 25 110 25 116 133 470 165
540 5 11 28 67 51 125 46 116 215 464 282 578 194 335 456 680 698 922 320
320 643 576 989 786 330 199 751 381 1140 491 245 69 457 111 720 142 250 30
621 43 743 26 28 -4 47 -3 47 3 0 5 17 8 38 6 20 -2 64 -6 97 -9 33 -2 80 -7
105 -10 108 -12 147 -17 175 -21 92 -15 253 -44 275 -48 54 -12 76 -17 97 -20
57 -11 302 -79 418 -117 383 -123 768 -305 1104 -523 53 -35 102 -66 109 -70
7 -4 35 10 70 37 31 25 197 147 367 272 419 308 512 377 633 467 57 43 110 82
119 86 9 5 13 14 10 19 -22 35 -469 350 -668 471 -280 169 -613 335 -919 456
-80 32 -154 62 -165 67 -140 59 -603 191 -860 244 -85 18 -97 20 -190 36 -33
6 -71 12 -85 15 -23 4 -106 16 -200 28 -55 7 -119 14 -200 21 -41 4 -91 9
-110 11 -19 2 -118 6 -220 9 -102 3 -192 8 -201 9 -9 2 -22 0 -30 -4z"/>
<path d="M10894 9812 c-439 -323 -568 -419 -588 -432 -25 -17 -313 -229 -336
-247 -22 -18 -479 -352 -595 -436 -55 -39 -102 -74 -105 -77 -3 -3 -34 -27
-70 -52 -36 -26 -69 -51 -75 -55 -5 -5 -59 -44 -120 -88 -60 -44 -114 -83
-120 -87 -5 -5 -53 -40 -105 -78 -170 -124 -279 -204 -363 -266 -45 -33 -111
-82 -147 -108 -36 -26 -76 -56 -90 -66 -14 -11 -171 -126 -350 -257 -514 -377
-534 -392 -545 -400 -30 -24 -1089 -800 -1108 -812 -20 -12 -34 -6 -197 98
-96 61 -182 115 -190 119 -9 4 -68 41 -133 82 -64 41 -128 82 -142 90 -14 8
-100 62 -192 120 -92 58 -181 114 -199 125 -18 11 -100 63 -183 115 -83 52
-161 101 -173 108 -13 7 -230 143 -483 302 -253 159 -461 287 -462 286 -3 -2
-5 -1373 -3 -1712 l0 -52 218 -136 c119 -76 314 -198 432 -273 118 -75 234
-147 258 -162 31 -19 595 -375 732 -461 55 -35 223 -140 320 -200 63 -39 177
-111 254 -159 121 -78 140 -87 155 -75 14 12 129 98 186 138 11 8 104 77 207
153 102 76 266 197 363 268 97 72 184 136 193 143 16 12 592 437 644 475 13
10 79 59 148 110 69 51 229 168 355 262 237 174 432 318 590 435 106 78 308
228 488 360 208 154 391 288 409 302 32 25 1181 873 1217 899 31 22 771 567
779 574 2 2 -27 63 -64 136 -37 74 -76 152 -87 174 -72 145 -289 503 -409 675
-100 143 -172 239 -178 239 -3 0 -64 -44 -136 -97z"/>
</g>
</svg>
